<svg xmlns="http://www.w3.org/2000/svg" width="1000" height="1000" viewBox="0 0 1000 1000" role="img" aria-label="حبّة ليالي"><defs><linearGradient id="bg" x1="0" x2="1" y1="0" y2="1"><stop offset="0" stop-color="#112B46"/><stop offset="1" stop-color="#0B4A3A"/></linearGradient><linearGradient id="jar" x1="0" x2="0" y1="0" y2="1"><stop offset="0" stop-color="#FFF8EF"/><stop offset="1" stop-color="#EADFCC"/></linearGradient><filter id="s" x="-40%" y="-40%" width="180%" height="180%"><feDropShadow dx="0" dy="32" stdDeviation="28" flood-color="#06111C" flood-opacity=".34"/></filter></defs><rect width="1000" height="1000" fill="url(#bg)"/><circle cx="800" cy="190" r="155" fill="#D6A84F" opacity=".92"/><circle cx="745" cy="150" r="150" fill="#112B46"/><g opacity=".5" fill="#FFF8EF"><circle cx="160" cy="145" r="6"/><circle cx="250" cy="260" r="4"/><circle cx="820" cy="690" r="5"/><circle cx="120" cy="780" r="5"/><circle cx="680" cy="110" r="4"/></g><g filter="url(#s)"><rect x="275" y="210" width="450" height="600" rx="70" fill="url(#jar)"/><rect x="340" y="165" width="320" height="90" rx="36" fill="#D6A84F"/><rect x="335" y="375" width="330" height="245" rx="42" fill="#112B46"/><text x="500" y="466" text-anchor="middle" font-family="Arial, sans-serif" font-size="58" font-weight="700" fill="#FFF8EF">حبّة ليالي</text><text x="500" y="522" text-anchor="middle" font-family="Arial, sans-serif" font-size="28" fill="#F0CF85">Sleep Ritual</text><text x="500" y="580" text-anchor="middle" font-family="Arial, sans-serif" font-size="24" fill="#FFF8EF" opacity=".84">Melatonin + Theanine</text><g fill="#D6A84F"><circle cx="405" cy="700" r="22"/><circle cx="462" cy="714" r="22"/><circle cx="519" cy="696" r="22"/><circle cx="576" cy="714" r="22"/></g></rect></g></svg>
